<?xml version="1.0" standalone="no"?>
<!DOCTYPE svg PUBLIC "-//W3C//DTD SVG 20010904//EN"
 "http://www.w3.org/TR/2001/REC-SVG-20010904/DTD/svg10.dtd">
<svg version="1.0" xmlns="http://www.w3.org/2000/svg"
 width="446.000000pt" height="312.000000pt" viewBox="0 0 446.000000 312.000000"
 preserveAspectRatio="xMidYMid meet">

<g transform="translate(0.000000,312.000000) scale(0.100000,-0.100000)"
fill="#D3C5B6" stroke="none">
<path d="M2099 3046 c-110 -29 -204 -108 -257 -214 -35 -72 -37 -81 -37 -171
0 -117 20 -187 72 -256 84 -109 184 -157 333 -159 135 -1 202 25 291 113 126
127 160 283 97 447 -24 63 -99 152 -162 191 -93 59 -227 79 -337 49z"/>
<path d="M260 2563 c0 -5 -7 -51 -16 -103 -24 -140 -24 -450 0 -555 41 -182
113 -330 227 -469 95 -114 185 -191 324 -274 95 -58 212 -108 223 -97 3 2 -17
30 -44 61 -155 179 -235 318 -286 499 -26 92 -60 266 -53 273 7 7 6 9 39 -88
48 -143 115 -280 194 -399 90 -135 172 -229 183 -209 4 7 15 72 24 143 21 151
16 361 -10 460 -77 297 -300 541 -650 711 -101 49 -155 66 -155 47z"/>
<path d="M4105 2496 c-325 -125 -568 -351 -668 -621 -66 -176 -76 -347 -37
-611 8 -57 16 -81 26 -81 24 0 107 97 169 197 73 117 174 322 204 413 13 37
25 67 28 67 10 0 -6 -104 -31 -204 -50 -194 -159 -403 -300 -574 l-67 -81 71
29 c190 78 383 227 524 403 58 72 148 257 175 357 45 171 51 375 16 615 -8 55
-15 103 -15 108 0 13 -33 7 -95 -17z"/>
<path d="M2541 2029 c-90 -12 -195 -45 -268 -84 l-62 -34 -55 30 c-112 61
-190 81 -329 87 -120 4 -133 3 -212 -23 -51 -16 -82 -31 -78 -38 3 -6 1 -7 -6
-3 -27 17 -170 -94 -236 -184 -87 -118 -127 -321 -90 -460 22 -84 73 -182 130
-247 91 -104 293 -199 450 -211 l69 -5 -82 89 c-97 103 -165 202 -201 288 -21
50 -25 78 -26 156 0 84 3 102 27 150 78 158 249 243 421 211 52 -9 90 -26 202
-85 26 -14 32 -14 50 -1 83 61 221 101 310 90 70 -8 112 -23 170 -60 63 -40
101 -84 134 -155 34 -73 36 -205 3 -293 -32 -87 -126 -222 -220 -316 l-85 -84
89 8 c338 28 571 249 590 560 13 204 -82 394 -258 513 -120 82 -288 121 -437
101z"/>
<path d="M30 1642 c0 -19 64 -202 97 -277 150 -338 427 -624 773 -798 165 -84
305 -132 607 -211 224 -59 285 -81 478 -170 113 -53 155 -66 155 -48 -1 30
-35 142 -56 185 -80 156 -182 266 -335 358 -118 70 -213 104 -494 174 -137 34
-295 79 -350 100 -300 112 -569 338 -743 625 -38 64 -40 65 -86 68 -25 2 -46
-1 -46 -6z"/>
<path d="M4305 1583 c-46 -84 -145 -224 -199 -281 -209 -221 -508 -376 -861
-445 -262 -52 -347 -76 -472 -133 -163 -74 -330 -224 -394 -355 -33 -66 -79
-195 -79 -221 0 -17 61 2 170 52 189 87 268 112 590 189 191 46 336 94 468
157 63 29 91 47 86 55 -4 8 -3 9 4 5 15 -9 59 14 168 90 310 215 535 528 633
882 l20 72 -49 0 -48 0 -37 -67z"/>
<path d="M1853 1542 c-123 -51 -162 -178 -103 -336 45 -120 180 -299 316 -421
107 -96 144 -125 156 -125 15 0 252 235 308 305 68 86 135 201 154 264 20 67
21 170 2 214 -30 73 -126 124 -214 114 -66 -7 -165 -61 -213 -115 l-41 -47
-59 57 c-99 95 -214 129 -306 90z"/>
</g>
</svg>
