<?xml version="1.0" standalone="no"?>
<!DOCTYPE svg PUBLIC "-//W3C//DTD SVG 20010904//EN"
 "http://www.w3.org/TR/2001/REC-SVG-20010904/DTD/svg10.dtd">
<svg version="1.0" xmlns="http://www.w3.org/2000/svg"
 width="1024.000000pt" height="1024.000000pt" viewBox="0 0 1024.000000 1024.000000"
 preserveAspectRatio="xMidYMid meet">

<g transform="translate(0.000000,1024.000000) scale(0.100000,-0.100000)"
fill="#000000" stroke="none">
<path d="M4984 7092 c-168 -58 -273 -195 -282 -367 -12 -225 126 -393 349
-428 139 -21 270 23 363 124 114 123 144 278 84 435 -24 63 -99 152 -162 191
-98 63 -246 81 -352 45z"/>
<path d="M3160 6613 c0 -5 -7 -48 -15 -98 -8 -49 -17 -155 -21 -235 -14 -321
65 -574 251 -799 91 -110 183 -187 320 -269 95 -58 212 -108 223 -97 3 2 -17
30 -44 61 -138 158 -217 289 -268 446 -35 106 -81 317 -71 326 7 8 8 7 44
-102 18 -54 56 -147 85 -206 85 -173 268 -421 287 -388 4 7 15 72 24 143 31
231 10 452 -59 605 -70 159 -232 342 -400 452 -156 103 -356 193 -356 161z"/>
<path d="M7005 6546 c-330 -127 -576 -360 -673 -636 -16 -47 -35 -119 -42
-160 -18 -99 -15 -277 6 -411 14 -95 18 -107 35 -104 66 13 283 368 364 598
15 42 30 77 33 77 9 0 -8 -106 -32 -204 -49 -193 -147 -382 -292 -563 l-73
-91 62 25 c96 39 135 60 235 130 187 130 312 270 397 447 30 61 63 145 74 186
45 168 50 377 16 615 -8 55 -15 103 -15 108 0 13 -33 7 -95 -17z"/>
<path d="M5441 6079 c-90 -11 -195 -44 -268 -84 l-61 -34 -66 35 c-112 60
-208 83 -341 84 -210 0 -391 -88 -510 -250 -82 -111 -124 -307 -95 -443 16
-77 78 -200 135 -264 99 -113 321 -213 472 -213 l45 0 -82 87 c-94 101 -163
200 -199 287 -21 50 -25 77 -26 156 0 84 3 102 27 150 38 78 108 147 187 184
60 28 74 31 161 30 104 -1 154 -16 249 -75 l52 -31 37 25 c213 148 490 91 594
-121 30 -61 33 -74 32 -157 0 -66 -6 -106 -22 -148 -32 -87 -126 -222 -220
-316 l-85 -84 89 8 c338 28 572 250 591 560 22 370 -310 663 -696 614z"/>
<path d="M2930 5693 c0 -27 75 -232 116 -319 123 -258 327 -491 578 -658 95
-64 311 -168 433 -210 56 -19 205 -62 331 -95 253 -66 267 -71 475 -165 79
-37 152 -66 162 -66 15 0 16 6 10 38 -40 217 -216 432 -450 549 -97 49 -198
82 -415 134 -233 57 -293 74 -403 118 -276 110 -539 339 -705 611 -38 62 -41
65 -86 70 -33 4 -46 2 -46 -7z"/>
<path d="M7202 5628 c-22 -40 -65 -108 -96 -151 -31 -43 -53 -83 -50 -89 4 -6
3 -8 -3 -5 -5 3 -27 -12 -49 -34 -216 -224 -509 -374 -866 -444 -253 -49 -340
-74 -465 -131 -176 -80 -345 -237 -411 -384 -20 -46 -62 -174 -62 -192 0 -16
60 2 172 53 195 89 286 118 569 184 86 19 206 52 265 71 143 46 347 148 476
236 121 83 328 285 407 398 65 93 104 167 95 182 -4 6 -3 8 3 5 16 -10 97 175
133 304 l19 69 -49 0 -48 0 -40 -72z"/>
<path d="M4755 5594 c-45 -17 -90 -56 -113 -99 -22 -42 -21 -156 1 -222 25
-72 100 -194 178 -288 80 -96 275 -275 301 -275 15 0 252 235 308 305 68 86
135 201 154 264 20 67 21 170 2 214 -30 73 -126 124 -214 114 -66 -7 -166 -61
-212 -115 l-40 -47 -64 60 c-101 95 -203 125 -301 89z"/>
</g>
</svg>
